<svg width="20" height="20" xmlns="http://www.w3.org/2000/svg" viewBox="0 0 36 34.39"><title>qAsset 1</title><g id="Layer_2" data-name="Layer 2"><g id="Layer_1-2" data-name="Layer 1"><path fill="#FFF" d="M1.5,27.57V19.89h8a4.53,4.53,0,0,0,9,0h3.65a8.58,8.58,0,0,1,2.31-1.5H17v1a3,3,0,0,1-6.08,0v-1H1.33L5,1.5H23l3.53,16.27A8.93,8.93,0,0,1,28,17.64h0L24.21,0H3.79L0,18.39V29.07H19.67a9.31,9.31,0,0,1-.33-1.5Z"/><rect fill="#FFF" x="7.6" y="3.81" width="12.4" height="1.5"/><rect fill="#FFF" x="5.88" y="8.81" width="15.83" height="1.5"/><rect fill="#FFF" x="4.67" y="13.81" width="18.26" height="1.5"/><path  fill="#FFF" d="M28.38,19.14A7.63,7.63,0,1,0,36,26.76,7.63,7.63,0,0,0,28.38,19.14Zm2.82,8.41H27.59V22.82h1.57V26h2Z"/></g></g></svg>